# AST/ASF file generated using VICON BodyLanguage
# -----------------------------------------------
:version 1.10
:name VICON
:units
  mass 1.0
  length 0.45
  angle deg
:documentation
   .ast/.asf automatically generated from VICON data using
   VICON BodyBuilder and BodyLanguage model FoxedUp or BRILLIANT.MOD
:root
   order TX TY TZ RX RY RZ
   axis XYZ
   position 0 0 0  
   orientation 0 0 0 
:bonedata
  begin
     id 1 
     name lhipjoint
     direction 0.528046 -0.759594 0.379717 
     length 2.39752 
     axis 0 0 0  XYZ
  end
  begin
     id 2 
     name lfemur
     direction 0.34202 -0.939693 0  
     length 7.31175  
     axis 0 0 20  XYZ
    dof rx ry rz
    limits (-160.0 20.0)
           (-70.0 70.0)
           (-60.0 70.0)
  end
  begin
     id 3 
     name ltibia
     direction 0.34202 -0.939693 0   
     length 7.52482   
     axis 0 0 20   XYZ
    dof rx
    limits (-10.0 170.0)
  end
  begin
     id 4 
     name lfoot
     direction 0.0675379 -0.185559 0.980309   
     length 2.00961   
     axis -90 7.62852e-016 20   XYZ
    dof rx rz
    limits (-45.0 90.0)
           (-70.0 20.0)
  end
  begin
     id 5 
     name ltoes
     direction 1.5352e-011 -4.22286e-011 1   
     length 1.01383   
     axis -90 7.62852e-016 20   XYZ
    dof rx
    limits (-90.0 20.0)
  end
  begin
     id 6 
     name rhipjoint
     direction -0.510274 -0.769251 0.384544   
     length 2.36742  
     axis 0 0 0  XYZ 
  end
  begin
     id 7 
     name rfemur
     direction -0.34202 -0.939693 0   
     length 7.45325   
     axis 0 0 -20   XYZ
    dof rx ry rz
    limits (-160.0 20.0)
           (-70.0 70.0)
           (-70.0 60.0)
  end
  begin
     id 8 
     name rtibia
     direction -0.34202 -0.939693 0   
     length 7.49587   
     axis 0 0 -20   XYZ
    dof rx
    limits (-10.0 170.0)
 end
 begin
     id 9 
     name rfoot
     direction -0.106475 -0.292536 0.950308   
     length 2.20898  
     axis -90 -7.62852e-016 -20   XYZ
    dof rx rz
    limits (-45.0 90.0)
           (-20.0 70.0)
  end
  begin
     id 10 
     name rtoes
     direction -1.53597e-011 -4.22023e-011 1   
     length 1.10065   
     axis -90 -7.62852e-016 -20   XYZ
    dof rx
    limits (-90.0 20.0)
  end
  begin
     id 11 
     name lowerback
     direction 0.0260024 0.998026 -0.0571652   
     length 2.11214   
     axis 0 0 0   XYZ
    dof rx ry rz
    limits (-20.0 45.0)
           (-30.0 30.0)
           (-30.0 30.0)
  end
  begin
     id 12 
     name upperback
     direction 0.0216202 0.999542 -0.0211766   
     length 2.11689   
     axis 0 0 0   XYZ
    dof rx ry rz
    limits (-20.0 45.0)
           (-30.0 30.0)
           (-30.0 30.0)
  end
  begin
     id 13 
     name thorax
     direction 0.00883312 0.999944 0.00589057   
     length 2.11821   
     axis 0 0 0   XYZ
    dof rx ry rz
    limits (-20.0 45.0)
           (-30.0 30.0)
           (-30.0 30.0)
  end
  begin
     id 14 
     name lowerneck
     direction -0.059386 0.994433 0.0870401   
     length 1.81176   
     axis 0 0 0   XYZ
    dof rx ry rz
    limits (-20.0 45.0)
           (-30.0 30.0)
           (-30.0 30.0)
  end
  begin
     id 15 
     name upperneck
     direction 0.0506457 0.97328 -0.223967   
     length 1.82382   
     axis 0 0 0   XYZ
    dof rx ry rz
    limits (-20.0 45.0)
           (-30.0 30.0)
           (-30.0 30.0)
  end
  begin
     id 16
     name head
     direction 0.0205902 0.996147 -0.0852487  
     length 1.84805  
     axis 0 0 0   XYZ
    dof rx ry rz
    limits (-20.0 45.0)
           (-30.0 30.0)
           (-30.0 30.0)
  end
  begin
     id 17 
     name lclavicle
     direction 0.949493 0.303881 -0.0782325  
     length 3.60584  
     axis 0 0 0   XYZ
    dof ry rz
    limits (-20.0 10.0)
           (0.0 20.0)
  end
  begin
     id 18 
     name lhumerus
     direction 1 -4.48965e-011 1.48782e-027   
     length 4.95681   
     axis 180 -30 -90   XYZ
    dof rx ry rz
    limits (-60.0 90.0)
           (-90.0 90.0)
           (-90.0 90.0)
  end
  begin
     id 19
     name lradius
     direction 1 -4.48952e-011 2.06528e-027   
     length 3.40915   
     axis 180 -30 -90   XYZ
    dof rx
    limits (-10.0 170.0)
  end
  begin
     id 20
     name lwrist
     direction 1 -4.48964e-011 1.28021e-027   
     length 1.70457   
     axis -1.61767e-015 90 90   XYZ
    dof ry
    limits (-180.0 0.0)
 end
  begin
     id 21 
     name lhand
     direction 1 -4.49094e-011 2.54887e-027   
     length 0.616403   
     axis -1.63363e-015 90 90   XYZ
    dof rx rz
    limits (-90.0 90.0)
           (-45.0 45.0)
  end
  begin
     id 22 
     name lfingers
     direction 1 -4.49002e-011 5.11407e-027   
     length 0.49696   
     axis -3.26723e-015 90 90   XYZ
    dof rx
    limits (0.0 90.0)
  end
  begin
     id 23
     name lthumb
     direction 0.707107 -6.34998e-011 0.707107   
     length 0.713539   
     axis -90 45 -2.25915e-014   XYZ
    dof rx rz
    limits (-45.0 45.0)
           (-45.0 45.0)
  end
  begin
     id 24 
     name rclavicle
     direction -0.937751 0.334612 -0.0930482   
     length 3.46287  
     axis 0 0 0   XYZ 
    dof ry rz
    limits (-10.0 20.0)
           (-20.0 0.0)
  end
  begin
     id 25 
     name rhumerus
     direction -1 -4.48962e-011 3.59972e-027  
     length 5.352   
     axis 180 30 90   XYZ
    dof rx ry rz
    limits (-90.0 60.0)
           (-90.0 90.0)
           (-90.0 90.0)
  end
  begin
     id 26 
     name rradius
     direction -1 -4.48987e-011 -3.76925e-027   
     length 3.43721   
     axis 180 30 90   XYZ
    dof rx
    limits (-10.0 170.0)
  end
  begin
     id 27 
     name rwrist
     direction -1 -4.48943e-011 1.28112e-027   
     length 1.7186   
     axis -1.61767e-015 -90 -90   XYZ
    dof ry
    limits (-180.0 0.0)
  end
  begin
     id 28
     name rhand
     direction -1 -4.49027e-011 2.55483e-027   
     length 0.72009   
     axis -1.63363e-015 -90 -90   XYZ
    dof rx rz
    limits (-90.0 90.0)
           (-45.0 45.0)
  end
  begin
     id 29
     name rfingers
     direction -1 -4.48827e-011 5.14506e-027   
     length 0.580555   
     axis -3.26723e-015 -90 -90   XYZ
    dof rx
    limits (0.0 90.0)
  end
  begin
     id 30
     name rthumb
     direction -0.707107 -6.34936e-011 0.707107   
     length 0.833564   
     axis -90 -45 2.25915e-014   XYZ
    dof rx rz
    limits (-45.0 45.0)
           (-45.0 45.0)
  end
:hierarchy
  begin
    root lhipjoint rhipjoint lowerback
    lhipjoint lfemur
    lfemur ltibia
    ltibia lfoot
    lfoot ltoes
    rhipjoint rfemur
    rfemur rtibia
    rtibia rfoot
    rfoot rtoes
    lowerback upperback
    upperback thorax
    thorax lowerneck lclavicle rclavicle
    lowerneck upperneck
    upperneck head
    lclavicle lhumerus
    lhumerus lradius
    lradius lwrist
    lwrist lhand lthumb
    lhand lfingers
    rclavicle rhumerus
    rhumerus rradius
    rradius rwrist
    rwrist rhand rthumb
    rhand rfingers
  end

#!OML:ASF H:\Terrain\Patient Classification 1\Terrain2\Thursday\justin.ASF
:FULLY-SPECIFIED
:DEGREES
581
root 20.4654 23.9959 7.24677 0.539058 -5.38836 -1.82695
lowerback 6.16746 -0.808631 -1.55781
upperback 1.06627 -1.11084 2.75527
thorax -2.27352 -0.537204 3.81141
lowerneck -12.8105 -0.511728 -7.80698
upperneck 38.5341 -0.127883 4.08826
head 15.7965 -0.676519 3.13732
rclavicle -6.80837e-015 1.07344e-014
rhumerus -29.4966 2.59088 -86.1331
rradius 51.6689
rwrist -15.8795
rhand -20.6291 12.9367
rfingers 7.12502
rthumb 5.73241 -16.9658
lclavicle -6.80837e-015 1.07344e-014
lhumerus -29.2186 4.80431 82.0943
lradius 31.723
lwrist 3.41757
lhand -12.7947 22.771
lfingers 7.12502
lthumb 13.291 52.3272
rfemur -18.9105 -3.58003 23.3161
rtibia 42.3261
rfoot -23.9254 0.0611965
rtoes 2.96945
lfemur -15.9152 4.29292 -19.5558
ltibia 26.9754
lfoot -11.6365 -15.2903
ltoes 1.88115
582
root 20.4482 23.9905 7.29645 0.44946 -5.17538 -2.11013
lowerback 6.15753 -0.903364 -1.33115
upperback 1.12855 -1.22214 2.80253
thorax -2.19891 -0.596172 3.73959
lowerneck -12.8835 -0.582781 -7.82034
upperneck 38.5471 -0.238866 4.11885
head 15.8309 -0.722012 3.13618
rclavicle 1.72943e-014 -5.96354e-015
rhumerus -29.4097 2.05538 -86.0633
rradius 51.1126
rwrist -15.9258
rhand -21.1915 12.4284
rfingers 7.12502
rthumb 5.18948 -17.4881
lclavicle 1.72943e-014 -5.96354e-015
lhumerus -28.9562 4.77622 82.0461
lradius 31.8187
lwrist 3.46759
lhand -13.2594 22.5854
lfingers 7.12502
lthumb 12.8431 52.1703
rfemur -18.8061 -3.13727 23.7313
rtibia 41.3977
rfoot -24.0628 -0.370525
rtoes 2.5808
lfemur -15.5792 4.62132 -19.1789
ltibia 26.8423
lfoot -11.4821 -15.9415
ltoes 3.70549
583
root 20.427 23.9927 7.34141 0.382239 -4.85861 -1.95087
lowerback 6.07102 -1.0327 -1.67
upperback 1.13015 -1.41647 2.79959
thorax -2.12617 -0.692275 3.9409
lowerneck -12.6914 -0.527726 -7.75331
upperneck 38.468 -0.16498 4.04265
head 15.7369 -0.690263 3.09737
rclavicle -3.52843e-015 6.75868e-015
rhumerus -29.4478 1.7215 -85.9655
rradius 50.5295
rwrist -16.0492
rhand -20.8383 12.438
rfingers 7.12502
rthumb 5.53049 -17.4699
lclavicle -3.52843e-015 6.75868e-015
lhumerus -28.8939 3.95558 82.456
lradius 31.8666
lwrist 6.15274
lhand -17.0821 20.8142
lfingers 7.12502
lthumb 9.1561 50.5954
rfemur -18.9246 -2.29974 23.5393
rtibia 40.7109
rfoot -24.1686 0.00324865
rtoes 5.79417
lfemur -15.0152 4.97758 -19.2898
ltibia 26.0805
lfoot -11.1579 -16.5467
ltoes 3.62482
584
root 20.4257 24.025 7.4106 0.0371289 -4.96968 -1.52422
lowerback 5.98713 -0.984092 -1.98484
upperback 1.2028 -1.37591 2.63409
thorax -2.00414 -0.673441 3.94046
lowerneck -12.3119 -0.478929 -7.59688
upperneck 38.388 -0.11979 3.90508
head 15.6002 -0.66588 3.00922
rclavicle 1.27719e-014 -1.35174e-014
rhumerus -29.6871 1.28153 -85.8355
rradius 50.0797
rwrist -16.1641
rhand -20.3345 11.9424
rfingers 7.12502
rthumb 6.01684 -17.9521
lclavicle 1.27719e-014 -1.35174e-014
lhumerus -28.714 4.35348 82.1262
lradius 32.0734
lwrist 3.65655
lhand -13.0993 23.6378
lfingers 7.12502
lthumb 12.9975 53.2129
rfemur -18.7665 -0.938137 22.7269
rtibia 40.078
rfoot -24.176 1.6176
rtoes 14.1039
lfemur -14.1636 4.73119 -19.7427
ltibia 25.7286
lfoot -11.4757 -16.255
ltoes 3.36388
585
root 20.4229 24.1106 7.46927 -0.145457 -4.95298 -1.37126
lowerback 5.94776 -0.962698 -2.0232
upperback 1.21849 -1.35183 2.53243
thorax -1.96955 -0.662074 3.8534
lowerneck -12.2093 -0.539794 -7.50208
upperneck 38.4589 -0.197613 3.76843
head 15.619 -0.706019 2.92174
rclavicle 1.39646e-014 -1.51076e-014
rhumerus -29.8815 0.665288 -85.7357
rradius 49.6106
rwrist -16.1823
rhand -20.6441 11.024
rfingers 7.12502
rthumb 5.718 -18.8788
lclavicle 1.39646e-014 -1.51076e-014
lhumerus -28.5603 4.0071 82.2324
lradius 32.1012
lwrist 3.69254
lhand -12.5959 23.9037
lfingers 7.12502
lthumb 13.4827 53.4473
rfemur -18.8195 0.584567 22.1769
rtibia 39.6322
rfoot -24.0647 2.31558
rtoes 21.8355
lfemur -13.576 4.63804 -19.886
ltibia 25.5436
lfoot -11.4038 -16.4022
ltoes 5.20776
